<svg xmlns="http://www.w3.org/2000/svg" viewBox="0 0 240 240" width="240" height="240" role="img" aria-label="Lara berpikir"><title>Lara berpikir</title><g stroke-linecap="round" stroke-linejoin="round"><path d="M120 42 V26" stroke="#1B2433" stroke-width="4" fill="none"/><circle cx="120" cy="20" r="8" fill="#FFC07A" stroke="#1B2433" stroke-width="3.5"/><circle cx="117" cy="17" r="2.4" fill="#FFFFFF"/><path d="M44 150 Q26 160 30 178" stroke="#1B2433" stroke-width="7" fill="none"/><path d="M44 150 Q26 160 30 178" stroke="#7EB6F5" stroke-width="3.5" fill="none"/><ellipse cx="92" cy="206" rx="15" ry="8" fill="#4A86D0" stroke="#1B2433" stroke-width="3.5"/><ellipse cx="148" cy="206" rx="15" ry="8" fill="#4A86D0" stroke="#1B2433" stroke-width="3.5"/><path d="M44 158 H196 L212 186 Q214 196 204 196 H36 Q26 196 28 186 Z" fill="#DDE9F8" stroke="#1B2433" stroke-width="3.5"/><rect x="62" y="170" width="13" height="6" rx="2" fill="#B1CCEB"/><rect x="81" y="170" width="13" height="6" rx="2" fill="#B1CCEB"/><rect x="100" y="170" width="13" height="6" rx="2" fill="#B1CCEB"/><rect x="119" y="170" width="13" height="6" rx="2" fill="#B1CCEB"/><rect x="138" y="170" width="13" height="6" rx="2" fill="#B1CCEB"/><rect x="157" y="170" width="13" height="6" rx="2" fill="#B1CCEB"/><rect x="176" y="170" width="13" height="6" rx="2" fill="#B1CCEB"/><rect x="71" y="181" width="13" height="6" rx="2" fill="#B1CCEB"/><rect x="90" y="181" width="13" height="6" rx="2" fill="#B1CCEB"/><rect x="109" y="181" width="13" height="6" rx="2" fill="#B1CCEB"/><rect x="128" y="181" width="13" height="6" rx="2" fill="#B1CCEB"/><rect x="147" y="181" width="13" height="6" rx="2" fill="#B1CCEB"/><rect x="166" y="181" width="13" height="6" rx="2" fill="#B1CCEB"/><rect x="40" y="40" width="160" height="120" rx="26" fill="#7EB6F5" stroke="#1B2433" stroke-width="3.5"/><rect x="53" y="53" width="134" height="92" rx="16" fill="#F3F8FF"/><path d="M62 66 Q64 58 74 57" stroke="#FFFFFF" stroke-width="4" fill="none" opacity=".9"/><ellipse cx="80" cy="118" rx="9" ry="6" fill="#FF8FA8" opacity=".55"/><ellipse cx="160" cy="118" rx="9" ry="6" fill="#FF8FA8" opacity=".55"/><ellipse cx="103" cy="94" rx="7" ry="9" fill="#1B2433"/><circle cx="105.5" cy="90" r="2.6" fill="#FFFFFF"/><ellipse cx="147" cy="94" rx="7" ry="9" fill="#1B2433"/><circle cx="149.5" cy="90" r="2.6" fill="#FFFFFF"/><path d="M86 80 Q96 74 106 78" stroke="#1B2433" stroke-width="3.5" fill="none"/><path d="M112 124 Q122 120 130 123" stroke="#1B2433" stroke-width="4" fill="none"/><path d="M196 150 Q206 138 176 132" stroke="#1B2433" stroke-width="7" fill="none"/><path d="M196 150 Q206 138 176 132" stroke="#7EB6F5" stroke-width="3.5" fill="none"/><circle cx="172" cy="131" r="7" fill="#7EB6F5" stroke="#1B2433" stroke-width="3.5"/><circle cx="196" cy="34" r="5" fill="#FFFFFF" stroke="#1B2433" stroke-width="3"/><circle cx="210" cy="22" r="7" fill="#FFFFFF" stroke="#1B2433" stroke-width="3"/><circle cx="226" cy="10" r="4" fill="#FFC07A"/></g></svg>